<?xml version="1.0" encoding="utf-8"?>
<!-- Generator: SketchAPI 4.1.465 <https://api.sketch.io/> -->
<svg version="1.1"
	 viewBox="0 0 300 200"
	 xmlns="http://www.w3.org/2000/svg" xmlns:xlink="http://www.w3.org/1999/xlink"
	 xmlns:sketchjs="https://sketch.io/dtd/">
<g sketchjs:tool="rectangle" style="fill: none; mix-blend-mode: source-over; opacity: NaN;">
	<path id="709e52b8_x2dde69_x2d4efd_x2d9d11_x2dfa29a0927cd9" style="vector-effect: non-scaling-stroke;" d="M0 -57.5 L254 -57.5 254 196.5 0 196.5 z"/>
	<use xlink:href="#709e52b8_x2dde69_x2d4efd_x2d9d11_x2dfa29a0927cd9"/>
	<use xlink:href="#709e52b8_x2dde69_x2d4efd_x2d9d11_x2dfa29a0927cd9"/>
</g>
<g sketchjs:tool="text" transform="matrix(0.9396926207859084,-0.3420201433256686,0.3420201433256686,0.9396926207859084,-29,91)" style="fill: #9dd241; mix-blend-mode: source-over; fill-opacity: 1;">
	<g sketchjs:uid="1">
		<g sketchjs:uid="2">
			<path d=" M 73.25390625 6.4609375 L 104.77734375 6.4609375 Q 105.8609619140625 6.4609375 106.63262939453125 7.23260498046875 Q 107.404296875 8.0042724609375 107.404296875 9.087890625 Q 107.404296875 10.1715087890625 106.63262939453125 10.94317626953125 Q 105.8609619140625 11.71484375 104.77734375 11.71484375 L 75.880859375 11.71484375 L 75.880859375 30.103515625 L 96.896484375 30.103515625 Q 97.9801025390625 30.103515625 98.75177001953125 30.87518310546875 Q 99.5234375 31.6468505859375 99.5234375 32.73046875 Q 99.5234375 33.8140869140625 98.75177001953125 34.58575439453125 Q 97.9801025390625 35.357421875 96.896484375 35.357421875 L 75.880859375 35.357421875 L 75.880859375 56.373046875 Q 75.880859375 57.4566650390625 75.10919189453125 58.22833251953125 Q 74.3375244140625 59 73.25390625 59 Q 72.1702880859375 59 71.39862060546875 58.22833251953125 Q 70.626953125 57.4566650390625 70.626953125 56.373046875 L 70.626953125 9.087890625 Q 70.626953125 8.0042724609375 71.39862060546875 7.23260498046875 Q 72.1702880859375 6.4609375 73.25390625 6.4609375 Z Z M 117.912109375 11.71484375 L 117.912109375 32.73046875 L 128.419921875 32.73046875 Q 132.7872314453125 32.73046875 135.85748291015625 29.66021728515625 Q 138.927734375 26.5899658203125 138.927734375 22.22265625 Q 138.927734375 17.8553466796875 135.85748291015625 14.78509521484375 Q 132.7872314453125 11.71484375 128.419921875 11.71484375 L 117.912109375 11.71484375 Z M 115.28515625 6.4609375 L 128.419921875 6.4609375 Q 134.9544677734375 6.4609375 139.56805419921875 11.07452392578125 Q 144.181640625 15.6881103515625 144.181640625 22.22265625 Q 144.181640625 28.7572021484375 139.58447265625 33.3543701171875 Q 137.4500732421875 35.48876953125 134.9544677734375 36.605224609375 L 146.3817138671875 54.92822265625 Q 146.80859375 55.5521240234375 146.80859375 56.373046875 Q 146.80859375 57.4566650390625 146.03692626953125 58.22833251953125 Q 145.2652587890625 59 144.181640625 59 Q 142.7696533203125 59 141.883056640625 57.6536865234375 L 129.5692138671875 37.9515380859375 Q 129.010986328125 37.984375 128.419921875 37.984375 L 117.912109375 37.984375 L 117.912109375 56.373046875 Q 117.912109375 57.4566650390625 117.14044189453125 58.22833251953125 Q 116.3687744140625 59 115.28515625 59 Q 114.2015380859375 59 113.42987060546875 58.22833251953125 Q 112.658203125 57.4566650390625 112.658203125 56.373046875 L 112.658203125 9.087890625 Q 112.658203125 8.0042724609375 113.42987060546875 7.23260498046875 Q 114.2015380859375 6.4609375 115.28515625 6.4609375 Z Z M 154.689453125 6.4609375 L 186.212890625 6.4609375 Q 187.2965087890625 6.4609375 188.06817626953125 7.23260498046875 Q 188.83984375 8.0042724609375 188.83984375 9.087890625 Q 188.83984375 10.1715087890625 188.06817626953125 10.94317626953125 Q 187.2965087890625 11.71484375 186.212890625 11.71484375 L 157.31640625 11.71484375 L 157.31640625 30.103515625 L 178.33203125 30.103515625 Q 179.4156494140625 30.103515625 180.18731689453125 30.87518310546875 Q 180.958984375 31.6468505859375 180.958984375 32.73046875 Q 180.958984375 33.8140869140625 180.18731689453125 34.58575439453125 Q 179.4156494140625 35.357421875 178.33203125 35.357421875 L 157.31640625 35.357421875 L 157.31640625 53.74609375 L 186.212890625 53.74609375 Q 187.2965087890625 53.74609375 188.06817626953125 54.51776123046875 Q 188.83984375 55.2894287109375 188.83984375 56.373046875 Q 188.83984375 57.4566650390625 188.06817626953125 58.22833251953125 Q 187.2965087890625 59 186.212890625 59 L 154.689453125 59 Q 153.6058349609375 59 152.83416748046875 58.22833251953125 Q 152.0625 57.4566650390625 152.0625 56.373046875 L 152.0625 9.087890625 Q 152.0625 8.0042724609375 152.83416748046875 7.23260498046875 Q 153.6058349609375 6.4609375 154.689453125 6.4609375 Z Z M 196.720703125 6.4609375 L 228.244140625 6.4609375 Q 229.3277587890625 6.4609375 230.09942626953125 7.23260498046875 Q 230.87109375 8.0042724609375 230.87109375 9.087890625 Q 230.87109375 10.1715087890625 230.09942626953125 10.94317626953125 Q 229.3277587890625 11.71484375 228.244140625 11.71484375 L 199.34765625 11.71484375 L 199.34765625 30.103515625 L 220.36328125 30.103515625 Q 221.4468994140625 30.103515625 222.21856689453125 30.87518310546875 Q 222.990234375 31.6468505859375 222.990234375 32.73046875 Q 222.990234375 33.8140869140625 222.21856689453125 34.58575439453125 Q 221.4468994140625 35.357421875 220.36328125 35.357421875 L 199.34765625 35.357421875 L 199.34765625 53.74609375 L 228.244140625 53.74609375 Q 229.3277587890625 53.74609375 230.09942626953125 54.51776123046875 Q 230.87109375 55.2894287109375 230.87109375 56.373046875 Q 230.87109375 57.4566650390625 230.09942626953125 58.22833251953125 Q 229.3277587890625 59 228.244140625 59 L 196.720703125 59 Q 195.6370849609375 59 194.86541748046875 58.22833251953125 Q 194.09375 57.4566650390625 194.09375 56.373046875 L 194.09375 9.087890625 Q 194.09375 8.0042724609375 194.86541748046875 7.23260498046875 Q 195.6370849609375 6.4609375 196.720703125 6.4609375 Z" sketchjs:uid="3" style="paint-order: stroke fill markers;"/>
		</g>
	</g>
</g>
</svg>